HIERARCHY
ROOT Hips
{
	OFFSET 0.00000 0.00000 0.00000
	CHANNELS 6 Xposition Yposition Zposition Zrotation Yrotation Xrotation 
	JOINT LHipJoint
	{
		OFFSET 0 0 0
		CHANNELS 3 Zrotation Yrotation Xrotation
		JOINT LeftUpLeg
		{
			OFFSET 3.13874 -1.57224 1.49786
			CHANNELS 3 Zrotation Yrotation Xrotation
			JOINT LeftLeg
			{
				OFFSET 2.10955 -5.79594 0.00000
				CHANNELS 3 Zrotation Yrotation Xrotation
				JOINT LeftFoot
				{
					OFFSET 2.41843 -6.64458 0.00000
					CHANNELS 3 Zrotation Yrotation Xrotation
					JOINT LeftToeBase
					{
						OFFSET 0.04713 -0.12948 1.66229
						CHANNELS 3 Zrotation Yrotation Xrotation
						End Site
						{
							OFFSET 0.00000 -0.00000 0.85167
						}
					}
				}
			}
		}
	}
	JOINT RHipJoint
	{
		OFFSET 0 0 0
		CHANNELS 3 Zrotation Yrotation Xrotation
		JOINT RightUpLeg
		{
			OFFSET -3.13988 -1.57224 1.49786
			CHANNELS 3 Zrotation Yrotation Xrotation
			JOINT RightLeg
			{
				OFFSET -2.15006 -5.90725 0.00000
				CHANNELS 3 Zrotation Yrotation Xrotation
				JOINT RightFoot
				{
					OFFSET -2.34496 -6.44273 0.00000
					CHANNELS 3 Zrotation Yrotation Xrotation
					JOINT RightToeBase
					{
						OFFSET -0.08699 -0.23900 1.55223
						CHANNELS 3 Zrotation Yrotation Xrotation
						End Site
						{
							OFFSET -0.00000 -0.00000 0.80281
						}
					}
				}
			}
		}
	}
	JOINT LowerBack
	{
		OFFSET 0 0 0
		CHANNELS 3 Zrotation Yrotation Xrotation
		JOINT Spine
		{
			OFFSET 0.01292 1.96517 -0.16495
			CHANNELS 3 Zrotation Yrotation Xrotation
			JOINT Spine1
			{
				OFFSET 0.02122 1.88666 0.19706
				CHANNELS 3 Zrotation Yrotation Xrotation
				JOINT Neck
				{
					OFFSET 0 0 0
					CHANNELS 3 Zrotation Yrotation Xrotation
					JOINT Neck1
					{
						OFFSET -0.01683 1.81591 0.07903
						CHANNELS 3 Zrotation Yrotation Xrotation
						JOINT Head
						{
							OFFSET 0.00815 1.74013 -0.47700
							CHANNELS 3 Zrotation Yrotation Xrotation
							End Site
							{
								OFFSET -0.00204 1.83225 -0.16933
							}
						}
					}
				}
				JOINT LeftShoulder
				{
					OFFSET 0 0 0
					CHANNELS 3 Zrotation Yrotation Xrotation
					JOINT LeftArm
					{
						OFFSET 3.38482 1.41533 0.19802
						CHANNELS 3 Zrotation Yrotation Xrotation
						JOINT LeftForeArm
						{
							OFFSET 4.32712 -0.00000 0.00000
							CHANNELS 3 Zrotation Yrotation Xrotation
							JOINT LeftHand
							{
								OFFSET 3.28587 -0.00000 -0.00000
								CHANNELS 3 Zrotation Yrotation Xrotation
								JOINT LeftFingerBase
								{
									OFFSET 0 0 0
									CHANNELS 3 Zrotation Yrotation Xrotation
									JOINT LeftHandIndex1
									{
										OFFSET 0.43316 -0.00000 -0.00000
										CHANNELS 3 Zrotation Yrotation Xrotation
										End Site
										{
											OFFSET 0.34922 -0.00000 -0.00000
										}
									}
								}
								JOINT LThumb
								{
									OFFSET 0 0 0
									CHANNELS 3 Zrotation Yrotation Xrotation
									End Site
									{
										OFFSET 0.35456 -0.00000 0.35456
									}
								}
							}
						}
					}
				}
				JOINT RightShoulder
				{
					OFFSET 0 0 0
					CHANNELS 3 Zrotation Yrotation Xrotation
					JOINT RightArm
					{
						OFFSET -3.09725 1.62858 -0.14144
						CHANNELS 3 Zrotation Yrotation Xrotation
						JOINT RightForeArm
						{
							OFFSET -4.29104 -0.00000 0.00000
							CHANNELS 3 Zrotation Yrotation Xrotation
							JOINT RightHand
							{
								OFFSET -3.22720 -0.00000 -0.00000
								CHANNELS 3 Zrotation Yrotation Xrotation
								JOINT RightFingerBase
								{
									OFFSET 0 0 0
									CHANNELS 3 Zrotation Yrotation Xrotation
									JOINT RightHandIndex1
									{
										OFFSET -0.54362 -0.00000 -0.00000
										CHANNELS 3 Zrotation Yrotation Xrotation
										End Site
										{
											OFFSET -0.43828 -0.00000 -0.00000
										}
									}
								}
								JOINT RThumb
								{
									OFFSET 0 0 0
									CHANNELS 3 Zrotation Yrotation Xrotation
									End Site
									{
										OFFSET -0.44497 -0.00000 0.44497
									}
								}
							}
						}
					}
				}
			}
		}
	}
}
MOTION
Frames: 13
Frame Time: 0.0363636
0.00 0.00 0.00 -35.5255 82.8080 -23.5299 0.0000 0.0000 0.0000 -17.4559 -18.7452 -36.3612 3.3137 11.1864 32.9110 1.3284 -14.6698 -21.6108 2.5303 -9.8928 -28.6303 0.0000 0.0000 0.0000 42.2992 16.8135 13.0221 -0.1122 2.1598 -5.9474 -1.4065 -18.0829 -35.0485 -0.7819 5.6452 -15.7584 15.5442 3.9158 20.0254 -5.8791 10.3621 -14.9143 -20.8952 0.2806 -26.0651 3.4046 -4.7977 -11.0572 0.4185 -5.6333 45.8272 -1.0584 -0.4472 19.4742 0.0000 0.0000 0.0000 -59.0297 24.4974 52.2332 18.5448 -28.8491 -4.8092 -0.0000 -0.0000 2.8266 26.7423 24.1883 11.6651 -7.1250 0.0000 -0.0000 -2.8963 56.6574 -0.8281 0.0000 0.0000 0.0000 92.3813 -35.6088 20.5248 -20.3647 31.0792 -5.7184 0.0000 -0.0000 -6.9984 -24.7651 -18.6452 8.3900 7.1250 -0.0000 -0.0000 3.4022 -50.3336 -0.4477
0.00 0.00 0.00 -40.5777 82.7849 -27.6557 0.0000 0.0000 0.0000 -12.1518 -26.0523 -35.5659 0.5961 4.9427 13.7451 2.2506 -14.8740 -27.4029 2.0770 -9.0246 -25.8724 0.0000 0.0000 0.0000 45.0016 19.1649 16.6624 -0.1423 2.4312 -6.6990 -2.1066 -18.9220 -39.4068 -0.5545 4.7702 -13.2543 15.8590 4.1589 19.9625 -5.7087 10.8700 -15.0341 -20.9814 0.4895 -25.9140 3.5168 -4.5948 -10.8386 -0.0906 -4.9706 46.0245 -1.1950 -0.2002 19.5217 0.0000 0.0000 0.0000 -58.8714 25.4988 49.2335 18.0992 -28.2841 -4.5962 -0.0000 -0.0000 3.7231 27.2570 22.8182 11.2986 -7.1250 0.0000 -0.0000 -1.9138 55.2971 -0.4839 0.0000 0.0000 0.0000 91.3158 -34.6385 22.5829 -20.5928 31.3499 -5.8366 0.0000 -0.0000 -6.0201 -24.7529 -17.3204 7.8160 7.1250 -0.0000 -0.0000 3.1219 -48.9075 -0.3011
0.00 0.00 0.00 -5.9049 84.2685 4.5848 0.0000 0.0000 0.0000 -29.1521 -23.7087 -14.3252 0.8143 5.7584 16.0850 1.2943 -1.8759 -20.9740 4.3600 -12.6246 -37.9790 0.0000 0.0000 0.0000 25.6645 -6.1449 0.2100 -4.0602 -12.2401 36.5867 1.2350 -24.0515 6.6531 -0.9822 6.3084 -17.6819 11.2534 4.9465 17.8258 -6.6294 10.0147 -15.2126 -18.8852 1.0343 -25.6354 5.1290 -4.2045 -9.6305 -0.6473 -4.1959 46.8824 -1.5595 0.4658 19.7061 0.0000 0.0000 0.0000 -58.7085 26.8653 39.9586 16.2600 -25.8719 -3.7587 -0.0000 -0.0000 6.4018 27.5802 23.9467 11.9703 -7.1250 0.0000 -0.0000 -1.9003 56.5830 -0.5397 0.0000 0.0000 0.0000 93.0337 -35.1558 16.9962 -18.9676 29.3784 -5.0150 0.0000 -0.0000 -7.2037 -23.1167 -19.8459 8.2460 7.1250 -0.0000 -0.0000 5.3497 -51.3298 -0.8361
0.00 0.00 0.00 19.1534 84.1593 29.0801 0.0000 0.0000 0.0000 -34.2370 -22.4915 -7.7041 0.5678 4.8258 13.4123 1.4396 -3.2774 -21.8514 4.5412 -12.8478 -38.8012 0.0000 0.0000 0.0000 22.4565 -4.8640 -15.1430 -8.0099 -16.1266 52.5985 1.3359 -19.9471 -7.0683 -1.9009 8.6565 -24.7267 9.1973 4.5686 18.6501 -7.2129 8.6959 -14.6996 -18.1417 0.6885 -26.2651 5.9591 -3.9212 -9.3675 -1.1597 -3.7131 46.8423 -1.8762 0.7281 19.5753 0.0000 -0.0000 0.0000 -57.5796 24.9644 44.0366 18.9443 -29.3494 -5.0035 -0.0000 -0.0000 5.2611 27.6936 24.6903 12.3662 -7.1250 0.0000 -0.0000 -2.0134 57.4078 -0.6120 0.0000 -0.0000 0.0000 92.6233 -34.6227 15.8775 -19.8396 30.4486 -5.4498 0.0000 -0.0000 -8.7011 -23.0279 -17.3832 7.2371 7.1250 -0.0000 -0.0000 4.8075 -48.7068 -0.4405
0.00 0.00 0.00 27.4507 82.4739 36.7203 0.0000 0.0000 0.0000 -38.6412 -17.9065 4.7021 0.1196 2.2298 6.1412 1.8674 -5.5468 -24.6676 4.7678 -13.1174 -39.8095 0.0000 0.0000 0.0000 18.8252 12.8025 -31.9876 -4.1433 -12.3487 36.9770 -0.2368 -13.5247 -21.7818 -2.5033 9.8439 -28.4727 7.3424 4.4285 20.5774 -7.4640 7.8381 -14.0611 -17.3226 0.4745 -27.2781 6.9813 -3.1793 -9.1016 -1.7858 -2.5326 46.4392 -2.1684 1.2444 19.2536 0.0000 0.0000 0.0000 -58.0574 20.3515 48.7822 25.0300 -36.2346 -8.3076 -0.0000 -0.0000 2.9224 27.9995 26.0810 13.1570 -7.1250 0.0000 -0.0000 -2.1540 58.9696 -0.7356 0.0000 0.0000 0.0000 92.8356 -34.7331 13.1504 -19.4601 29.9864 -5.2588 0.0000 -0.0000 -8.1563 -23.6201 -17.9737 7.6853 7.1250 -0.0000 -0.0000 4.3707 -49.4277 -0.4780
0.00 0.00 0.00 -88.5017 82.2556 -80.8799 0.0000 0.0000 0.0000 -3.5831 -39.3128 -24.3133 0.0228 0.9758 2.6823 9.1124 -14.6352 -56.5064 2.7673 -10.3085 -29.9816 0.0000 0.0000 0.0000 42.5440 9.5729 12.0457 -0.0036 0.3849 -1.0577 -0.4905 -9.7732 -20.1889 -0.8197 5.7770 -16.1386 14.5327 4.0454 17.8200 -4.7532 10.0664 -15.0134 -18.2106 0.8321 -25.0839 6.4273 -1.7183 -9.5579 0.5153 -0.1690 48.5708 -0.3526 2.7281 21.1962 -0.0000 -0.0000 0.0000 -60.4058 26.3277 40.6212 18.0217 -28.1849 -4.5595 -0.0000 -0.0000 6.1599 22.7690 27.3342 10.9088 -7.1250 0.0000 -0.0000 -8.5871 59.0481 -2.9615 -0.0000 -0.0000 0.0000 85.3968 -26.7231 25.6039 -23.2534 34.3648 -7.2808 0.0000 -0.0000 -9.5071 -26.0715 -18.0122 8.6033 7.1250 -0.0000 -0.0000 1.9705 -49.8693 -0.2366
0.00 0.00 0.00 -179.9540 50.9723 -173.3740 0.0000 0.0000 0.0000 -34.3944 -26.3570 0.0249 0.9756 6.2880 17.6223 0.1876 -5.7387 -8.1279 4.0110 -12.1751 -36.3541 0.0000 0.0000 0.0000 13.5156 28.7596 -12.1073 -0.6925 -5.3197 14.8227 -0.4597 4.0841 -12.0635 -0.4316 4.2159 -11.6849 0.0695 2.5331 14.6687 -1.5302 4.0801 -13.3118 -3.4040 1.7681 -23.9795 5.9815 -1.6351 -9.7854 -6.3960 4.1332 45.1871 -2.8615 3.7175 19.2337 0.0000 0.0000 0.0000 -74.5438 26.6664 32.3687 25.4990 -36.7097 -8.5864 -0.0000 -0.0000 2.6085 28.0225 21.5856 11.0782 -7.1250 0.0000 -0.0000 -0.7699 54.1191 -0.1726 0.0000 0.0000 0.0000 79.3820 -30.4744 34.5812 -21.6522 32.5818 -6.3976 0.0000 -0.0000 -9.1088 -25.8819 -16.9294 8.0416 7.1250 -0.0000 -0.0000 1.9458 -48.6616 -0.1758
0.00 0.00 0.00 -175.1950 4.5995 -166.7150 0.0000 0.0000 0.0000 -4.3931 -40.7858 -32.9813 0.1354 2.3720 6.5348 2.6056 15.6144 -39.1282 9.3219 -17.0105 -57.1969 0.0000 0.0000 0.0000 41.9981 15.0234 13.4467 -0.1073 2.1118 -5.8147 -1.2110 -14.9179 -30.8763 -0.5178 4.6120 -12.8052 -1.0209 0.2394 15.3763 5.9113 2.8607 -12.8369 6.3569 2.7966 -24.6063 4.2408 0.7509 -10.7880 -11.0873 11.5084 39.4594 -3.0550 6.2855 17.2679 -0.0000 0.0000 0.0000 -87.7545 31.8689 13.1607 17.3841 -27.3613 -4.2624 -0.0000 -0.0000 6.1315 28.3216 24.8790 12.7747 -7.1250 0.0000 -0.0000 -1.3729 57.7548 -0.4287 -0.0000 0.0000 0.0000 64.6617 -23.7457 57.4088 -20.0847 30.7443 -5.5746 0.0000 -0.0000 -14.4188 -27.4802 -17.8481 9.0577 7.1250 -0.0000 -0.0000 0.5411 -49.9270 -0.0657
0.00 0.00 0.00 -185.3690 5.7132 -173.1420 0.0000 0.0000 0.0000 -38.9706 -11.2704 3.9571 0.1850 2.7705 7.6404 1.2092 -8.1467 -19.6737 5.9017 -14.3324 -44.5861 0.0000 0.0000 0.0000 7.2836 32.6919 -21.0264 -0.0201 -0.9156 2.5165 -1.3584 -17.8327 -34.5384 -0.2169 2.9981 -8.2734 -8.0130 -0.0224 16.8933 2.9853 -0.6711 -12.8710 8.3276 2.0130 -25.0304 7.9633 1.7683 -9.0032 -11.3820 13.5727 41.0508 -3.5041 8.0377 18.3865 0.0000 -0.0000 0.0000 -81.0617 24.2338 25.6670 27.9834 -39.1009 -10.1132 -0.0000 -0.0000 2.5742 31.1063 24.7999 14.2028 -7.1250 0.0000 -0.0000 1.8252 58.3244 0.5950 0.0000 -0.0000 0.0000 67.8590 -30.8106 43.2041 -16.9287 26.7637 -4.0552 0.0000 -0.0000 -13.5926 -26.0252 -17.6107 8.4034 7.1250 -0.0000 -0.0000 1.9361 -49.4254 -0.2113
0.00 0.00 0.00 -172.9390 -5.1879 -173.3400 0.0000 0.0000 0.0000 -16.0664 -21.5058 -24.7483 0.1403 2.4141 6.6516 8.3375 -0.5804 -55.3339 5.3900 -13.8100 -42.4816 0.0000 0.0000 0.0000 44.7659 18.6553 14.7486 -0.0689 1.6933 -4.6588 -1.3553 -17.6482 -34.3427 -0.0397 -1.2856 3.5350 0.1545 1.8182 14.9377 7.1497 2.3171 -13.2202 8.0001 1.2906 -24.8271 5.7253 11.4298 -8.9932 -7.5969 13.3708 44.4254 -3.1369 2.8583 19.9341 0.0000 0.0000 0.0000 -90.5761 34.3377 9.4000 20.5061 -31.2472 -5.7916 -0.0000 -0.0000 5.4620 27.2048 23.3545 11.5177 -7.1250 0.0000 -0.0000 -2.1280 55.8638 -0.5674 0.0000 0.0000 0.0000 61.1955 -15.7719 56.3953 -24.2919 35.4714 -7.8753 0.0000 -0.0000 -17.1915 -28.4574 -18.5784 9.7972 7.1250 -0.0000 -0.0000 -0.3097 -50.9018 0.0450
0.00 0.00 0.00 -154.2880 -80.7775 -195.1180 0.0000 0.0000 0.0000 -21.8674 -23.8019 -17.1931 1.9667 8.7963 25.1603 0.0770 -8.8353 -7.5534 3.7665 -11.8431 -35.1790 0.0000 0.0000 0.0000 33.9348 18.6546 6.9344 -0.0779 1.8002 -4.9538 -1.2115 -12.4597 -28.6598 -4.1184 12.3164 -36.8605 -7.9772 -1.3598 16.1471 9.9046 -3.2540 -14.4140 19.0361 1.6685 -26.3637 1.7055 7.3922 -5.7091 -14.0679 13.1429 40.0477 -4.9571 2.8632 16.7629 -0.0000 -0.0000 0.0000 -101.3948 32.8731 3.6962 20.6125 -31.3732 -5.8469 -0.0000 -0.0000 5.4212 27.0660 28.1070 13.5353 -7.1250 0.0000 -0.0000 -4.0755 60.8891 -1.5795 -0.0000 -0.0000 0.0000 49.5356 -25.0150 64.3783 -21.8045 32.7554 -6.4798 0.0000 -0.0000 -15.5954 -27.8511 -22.3949 11.3819 7.1250 -0.0000 -0.0000 1.1590 -54.9640 -0.2836
0.00 0.00 0.00 -121.5840 -83.1352 -227.8770 0.0000 0.0000 0.0000 -17.7760 -30.0454 -31.5223 0.9277 6.1358 17.1789 1.6247 -5.2484 -22.9737 3.0115 -10.7136 -31.3200 0.0000 0.0000 0.0000 38.1122 10.5664 7.5104 -0.0625 1.6132 -4.4380 -1.7659 -6.5620 -28.1855 -1.6751 8.1537 -23.1818 -5.4835 -1.2346 16.4984 10.6944 -2.1239 -13.9413 18.0513 1.7474 -26.4390 1.0658 7.3375 -4.9469 -13.7009 13.1329 40.4958 -4.7080 2.8704 16.7274 0.0000 -0.0000 0.0000 -103.0789 36.8187 -1.7927 18.4582 -28.7400 -4.7675 -0.0000 -0.0000 5.0763 27.2330 24.6226 12.1025 -7.1250 0.0000 -0.0000 -2.5022 57.2310 -0.7500 0.0000 -0.0000 0.0000 49.0580 -22.0896 64.1357 -25.9454 37.1547 -8.8546 0.0000 -0.0000 -16.6911 -28.4005 -20.1998 10.5756 7.1250 -0.0000 -0.0000 0.0603 -52.6775 -0.0114
0.00 0.00 0.00 -134.8360 -88.0746 -219.2220 0.0000 0.0000 0.0000 -28.6047 -2.4700 6.7048 2.8988 10.5293 30.7085 0.0484 -0.5606 -3.9941 0.6306 -5.0811 -14.1400 0.0000 0.0000 0.0000 28.7785 19.2048 -13.9514 -0.3141 -3.6028 9.9619 0.4546 -13.7691 -12.5869 -0.1790 2.7253 -7.5149 -6.7956 -1.0282 15.2833 6.5807 -2.6386 -13.6915 13.1358 0.9086 -24.7001 1.7258 6.1792 -8.4488 -7.3282 9.2837 46.4037 -2.7771 1.8221 20.2419 0.0000 -0.0000 0.0000 -92.4713 33.4159 15.4790 22.2683 -33.2790 -6.7325 -0.0000 -0.0000 3.6854 23.8997 25.6130 10.8443 -7.1250 0.0000 -0.0000 -6.5411 57.5309 -2.0128 0.0000 -0.0000 0.0000 59.9080 -30.4858 52.3502 -17.3210 27.2791 -4.2334 0.0000 -0.0000 -14.4081 -25.7979 -20.0742 9.4202 7.1250 -0.0000 -0.0000 2.7079 -52.0518 -0.4704
